<svg width="69" height="70" viewBox="0 0 69 70" fill="none" xmlns="http://www.w3.org/2000/svg">
<g opacity="0.8">
<path d="M34.2812 13.8148H30.2262L26.24 7.83545" stroke="white" stroke-width="3"/>
<path d="M34.2816 21.5122H21.292L16.5497 15.3267" stroke="white" stroke-width="3"/>
<path d="M26.79 29.2787H12.7006L8.64563 23.8491" stroke="white" stroke-width="3"/>
<path d="M26.79 40.2065H12.7006L8.78308 45.6361" stroke="white" stroke-width="3"/>
<path d="M34.3503 47.9727H21.0856L16.4808 54.3644" stroke="white" stroke-width="3"/>
<path d="M33.9376 55.8081H30.295L26.5149 61.65" stroke="white" stroke-width="3"/>
<path d="M24.7279 34.708H9.47021" stroke="white" stroke-width="3"/>
<circle cx="24.1785" cy="4.53608" r="3.03608" stroke="white" stroke-width="3"/>
<circle cx="14.2812" cy="12.2338" r="3.03608" stroke="white" stroke-width="3"/>
<circle cx="6.58381" cy="21.0312" r="3.03608" stroke="white" stroke-width="3"/>
<circle cx="4.9344" cy="34.6396" r="3.03608" stroke="white" stroke-width="3"/>
<circle cx="6.44624" cy="48.5224" r="3.03608" stroke="white" stroke-width="3"/>
<circle cx="14.2812" cy="57.3198" r="3.03608" stroke="white" stroke-width="3"/>
<circle cx="24.1785" cy="65.0175" r="3.03608" stroke="white" stroke-width="3"/>
<path fill-rule="evenodd" clip-rule="evenodd" d="M34.0686 26.0485V9.14124C34.7787 6.25464 37.5875 0.481445 43.1407 0.481445C49.1473 0.481445 52.5809 3.26032 53.3968 7.21502C53.2375 7.44171 53.139 7.71516 53.1263 8.01255C53.0807 9.07912 52.5966 10.9856 51.5155 12.7343C50.4469 14.4627 48.9056 15.8678 46.8236 16.2947C46.012 16.4611 45.4891 17.2539 45.6555 18.0655C45.8219 18.877 46.6147 19.4 47.4262 19.2336C50.5693 18.5891 52.7207 16.4897 54.0672 14.3119C55.0738 12.6837 55.693 10.9165 55.9658 9.45455C59.7979 10.3974 64.9665 13.6981 63.3293 22.3765C61.209 21.5345 59.179 21.3731 57.9719 21.2771L57.8695 21.2689C57.0437 21.2029 56.3207 21.8188 56.2547 22.6445C56.1886 23.4703 56.8045 24.1933 57.6303 24.2594L57.6323 24.2595C60.2571 24.4695 65.1427 24.8604 67.2857 30.4857C67.3539 30.6649 67.4529 30.8234 67.5742 30.9576C67.8948 32.0216 68.0892 33.2246 68.0892 34.5708C68.0892 40.344 64.5153 43.8491 62.7283 44.8801C64.2648 49.2973 64.7875 58.008 55.7428 59.8477C55.6307 56.2543 53.8109 53.4594 52.8818 52.0325L52.8257 51.9464C52.374 51.2519 51.4449 51.0551 50.7504 51.5068C50.056 51.9585 49.8592 52.8876 50.3109 53.5821L50.312 53.5838C51.7478 55.7912 54.4201 59.8997 51.2722 65.0306C51.055 65.3845 51.0023 65.793 51.0926 66.167C49.0828 68.0214 46.1117 68.8663 43.1407 68.8663C40.2999 68.5685 34.5084 66.4058 34.0686 60.1378C33.6287 53.8698 33.8853 46.7128 34.0686 43.9179V26.0485ZM52.6589 26.6749C53.4331 26.9698 53.8216 27.8365 53.5266 28.6107C52.3152 31.7906 50.3983 33.7018 48.3951 34.8642C50.51 36.0066 52.5649 37.9477 53.8391 41.2927C54.1341 42.0668 53.7456 42.9335 52.9714 43.2284C52.1972 43.5233 51.3306 43.1348 51.0357 42.3607C49.4767 38.2682 46.4661 36.9462 43.9304 36.4487C42.9302 36.6303 42.0529 36.7001 41.4094 36.7512L41.307 36.7594C40.4812 36.8254 39.7582 36.2096 39.6922 35.3838C39.6595 34.9747 39.7941 34.5909 40.0386 34.2996C40.2032 33.5873 40.8689 33.0839 41.6195 33.1439L41.7219 33.1521C42.291 33.1973 43.0429 33.2571 43.901 33.3959C46.3742 32.8556 49.2218 31.4838 50.7232 27.5427C51.0181 26.7685 51.8847 26.38 52.6589 26.6749Z" fill="white"/>
<g clip-path="url(#clip0)">
<path d="M42.8779 32.578H41.0261C40.7285 32.578 40.4833 32.4141 40.3693 32.1392C40.2553 31.8643 40.3132 31.5747 40.5232 31.3643L41.8325 30.0554C42.025 29.8629 42.1309 29.6067 42.1309 29.3347C42.1309 29.0624 42.025 28.8065 41.8325 28.6137L40.1636 26.9448C39.7788 26.5599 39.1076 26.5592 38.722 26.9448L37.413 28.2538C37.2389 28.4279 37.0476 28.4642 36.9174 28.4642C36.7342 28.4642 36.552 28.3923 36.4175 28.2666C36.3181 28.1735 36.1994 28.0085 36.1994 27.7512V25.8994C36.1994 25.3375 35.7423 24.8804 35.1804 24.8804H32.8198C32.2578 24.8804 31.8007 25.3375 31.8007 25.8994V27.7512C31.8007 28.1977 31.4353 28.4642 31.0819 28.4642C30.9522 28.4642 30.7608 28.4275 30.5867 28.2538L29.2778 26.9448C28.8922 26.5592 28.221 26.5599 27.8361 26.9448L26.1672 28.6137C25.9748 28.8061 25.8688 29.0624 25.8688 29.3347C25.8688 29.6067 25.9748 29.8625 26.1672 30.0554L27.4765 31.3643C27.6866 31.5747 27.7441 31.8643 27.6305 32.1392C27.5168 32.4141 27.2716 32.578 26.974 32.578H25.1222C24.5602 32.578 24.1031 33.0351 24.1031 33.597V35.9568C24.1031 36.5191 24.5602 36.9766 25.1222 36.9766H26.974C27.2716 36.9766 27.5168 37.1404 27.6308 37.4154C27.7448 37.6903 27.6869 37.9798 27.4769 38.1902L26.1676 39.4992C25.9751 39.6916 25.8692 39.9479 25.8692 40.2198C25.8692 40.4922 25.9751 40.748 26.1676 40.9409L27.8365 42.6098C28.2217 42.995 28.8925 42.9957 29.2781 42.6098L30.5871 41.3008C30.7612 41.1267 30.9525 41.0904 31.0827 41.0904C31.4357 41.0904 31.8011 41.3573 31.8011 41.8033V43.6548C31.8007 44.2167 32.2578 44.6742 32.8198 44.6742H35.18C35.7419 44.6742 36.199 44.2167 36.199 43.6548V41.8033C36.199 41.3569 36.5645 41.0904 36.9174 41.0904C37.0472 41.0904 37.2389 41.1271 37.413 41.3008L38.722 42.6098C39.1076 42.9954 39.7788 42.9946 40.1636 42.6098L41.8325 40.9409C42.025 40.7484 42.1309 40.4922 42.1309 40.2198C42.1309 39.9479 42.025 39.692 41.8325 39.4992L40.5232 38.1902C40.3132 37.9798 40.2556 37.6903 40.3693 37.4154C40.4829 37.1404 40.7285 36.9766 41.0261 36.9766H42.8779C43.4399 36.9766 43.897 36.5191 43.897 35.9572V33.597C43.897 33.0351 43.4399 32.578 42.8779 32.578ZM36.5659 34.7773C36.5659 36.1918 35.4146 37.3431 34.0001 37.3431C32.5855 37.3431 31.4342 36.1918 31.4342 34.7773C31.4342 33.3628 32.5855 32.2114 34.0001 32.2114C35.4146 32.2114 36.5659 33.3628 36.5659 34.7773Z" fill="white"/>
</g>
</g>
<defs>
<clipPath id="clip0">
<rect width="19.7938" height="19.7938" fill="white" transform="translate(24.1031 24.8804)"/>
</clipPath>
</defs>
</svg>
