<svg width="179" height="48" viewBox="0 0 179 48" fill="none" xmlns="http://www.w3.org/2000/svg">
<rect width="48" height="48" rx="8" fill="#323232"/>
<path fill-rule="evenodd" clip-rule="evenodd" d="M15.1947 8.78516C13.9045 8.78516 12.8586 9.83106 12.8586 11.1213V34.5822C12.8586 37.1626 14.9504 39.2544 17.5308 39.2544V13.4574L35.1414 13.4574C35.1414 10.877 33.0496 8.78516 30.4692 8.78516L15.2014 8.78517C15.1991 8.78516 15.1969 8.78516 15.1947 8.78516Z" fill="white"/>
<path fill-rule="evenodd" clip-rule="evenodd" d="M21.5641 17.5708L21.5641 22.243L30.4693 22.243V27.1946L21.5641 27.1946L21.5641 31.8668H21.5643L21.5641 31.9068V39.2545C24.1445 39.2545 26.2363 37.1627 26.2363 34.5823V31.8668H30.4692C33.0496 31.8668 35.1415 29.775 35.1415 27.1946H35.1009C35.1277 26.9921 35.1415 26.7854 35.1415 26.5755V20.7053C35.1415 19.5189 34.257 18.539 33.1114 18.3891C32.3599 17.8729 31.4499 17.5708 30.4693 17.5708L21.5641 17.5708Z" fill="url(#paint0_linear)"/>
<path d="M65.9755 33H69.1374V25.5852H76.3903V22.9347H69.1374V18.196H77.1573V15.5455H65.9755V33ZM79.9016 33H82.9869V19.9091H79.9016V33ZM81.4528 18.0511C82.4329 18.0511 83.234 17.3011 83.234 16.3807C83.234 15.4517 82.4329 14.7017 81.4528 14.7017C80.4641 14.7017 79.663 15.4517 79.663 16.3807C79.663 17.3011 80.4641 18.0511 81.4528 18.0511ZM89.2447 15.5455H86.1594V33H89.2447V15.5455ZM98.9542 19.9091H96.3718V16.7727H93.2866V19.9091H91.4286V22.2955H93.2866V29.5739C93.2695 32.0369 95.0593 33.2472 97.3775 33.179C98.2553 33.1534 98.8604 32.983 99.1928 32.8722L98.6729 30.4602C98.5025 30.5028 98.1531 30.5795 97.7695 30.5795C96.994 30.5795 96.3718 30.3068 96.3718 29.0625V22.2955H98.9542V19.9091ZM107.189 33.2557C110.24 33.2557 112.337 31.7642 112.882 29.4886L110.002 29.1648C109.584 30.2727 108.561 30.8523 107.232 30.8523C105.238 30.8523 103.917 29.5398 103.891 27.2983H113.01V26.3523C113.01 21.7585 110.249 19.7386 107.027 19.7386C103.277 19.7386 100.831 22.4915 100.831 26.5312C100.831 30.6392 103.243 33.2557 107.189 33.2557ZM103.9 25.2188C103.993 23.5483 105.229 22.142 107.07 22.142C108.843 22.142 110.036 23.4375 110.053 25.2188H103.9ZM115.62 33H118.706V25.304C118.706 23.642 119.958 22.4659 121.654 22.4659C122.174 22.4659 122.822 22.5597 123.086 22.6449V19.8068C122.805 19.7557 122.319 19.7216 121.978 19.7216C120.478 19.7216 119.225 20.5739 118.748 22.0909H118.612V19.9091H115.62V33ZM125.272 33H128.434V27.1023H131.775C135.806 27.1023 137.971 24.6818 137.971 21.3239C137.971 17.9915 135.832 15.5455 131.818 15.5455H125.272V33ZM128.434 24.5028V18.1875H131.332C133.701 18.1875 134.75 19.4659 134.75 21.3239C134.75 23.1818 133.701 24.5028 131.349 24.5028H128.434ZM140.581 33H143.667V19.9091H140.581V33ZM142.132 18.0511C143.113 18.0511 143.914 17.3011 143.914 16.3807C143.914 15.4517 143.113 14.7017 142.132 14.7017C141.144 14.7017 140.343 15.4517 140.343 16.3807C140.343 17.3011 141.144 18.0511 142.132 18.0511ZM149.362 19.9091H146.089L149.975 26.4545L145.987 33H149.26L152.004 28.2869L154.774 33H158.021L154.007 26.4545L157.953 19.9091H154.689L152.004 24.7415L149.362 19.9091ZM165.642 33.2557C168.694 33.2557 170.79 31.7642 171.336 29.4886L168.455 29.1648C168.037 30.2727 167.015 30.8523 165.685 30.8523C163.691 30.8523 162.37 29.5398 162.344 27.2983H171.463V26.3523C171.463 21.7585 168.702 19.7386 165.48 19.7386C161.73 19.7386 159.284 22.4915 159.284 26.5312C159.284 30.6392 161.696 33.2557 165.642 33.2557ZM162.353 25.2188C162.446 23.5483 163.682 22.142 165.523 22.142C167.296 22.142 168.489 23.4375 168.506 25.2188H162.353ZM177.159 15.5455H174.074V33H177.159V15.5455Z" fill="white"/>
<defs>
<linearGradient id="paint0_linear" x1="25.3777" y1="28.4326" x2="-23.443" y2="2.77131" gradientUnits="userSpaceOnUse">
<stop stop-color="#3DF2D2"/>
<stop offset="1"/>
</linearGradient>
</defs>
</svg>
