<svg width="62" height="63" viewBox="0 0 62 63" fill="none" xmlns="http://www.w3.org/2000/svg">
<g opacity="0.8">
<path d="M22.7646 58.2955C15.7661 56.4129 3.30762 48.9494 3.30762 31.2409C3.30762 9.10524 23.1266 3.63965 30.6379 3.63965C38.1492 3.63965 58.6922 8.2854 58.6922 31.2409C58.6922 54.1963 39.4615 59.4089 35.1628 59.0243C30.6559 58.621 30.6379 51.1295 30.6379 44.0243" stroke="white" stroke-width="6" stroke-linecap="round"/>
<path d="M40.9999 31.332H20.9999C21.1549 36.2038 23.3565 45.9474 30.9224 45.9474C38.4883 45.9474 40.7932 36.2038 40.9999 31.332Z" fill="white"/>
<path d="M23.3076 22.4861C23.3076 21.424 24.1686 20.563 25.2307 20.563C26.2928 20.563 27.1538 21.424 27.1538 22.4861V29.7938H23.3076V22.4861Z" fill="white"/>
<path d="M34.0768 22.4861C34.0768 21.424 34.9378 20.563 35.9999 20.563C37.0619 20.563 37.9229 21.424 37.9229 22.4861V29.7938H34.0768V22.4861Z" fill="white"/>
</g>
</svg>
