<svg width="79" height="80" viewBox="0 0 79 80" fill="none" xmlns="http://www.w3.org/2000/svg">
<g opacity="0.8" filter="url(#filter0_d)">
<path d="M36.6429 8.4635C36.1206 8.64304 35.8428 9.21198 36.0223 9.73427C36.2019 10.2566 36.7708 10.5344 37.2931 10.3549L36.6429 8.4635ZM58.5065 13.6397L59.1822 12.9025L58.5065 13.6397ZM65.8141 35.563L71.1375 25.3163L59.6019 25.8295L65.8141 35.563ZM36.968 9.40918C37.2931 10.3549 37.2928 10.355 37.2925 10.3551C37.2924 10.3551 37.2922 10.3552 37.2921 10.3552C37.292 10.3553 37.292 10.3552 37.2922 10.3552C37.2927 10.355 37.2938 10.3546 37.2957 10.354C37.2995 10.3527 37.3063 10.3504 37.3159 10.3473C37.335 10.341 37.3657 10.3311 37.4072 10.3181C37.4904 10.292 37.6173 10.2536 37.7842 10.207C38.1183 10.1135 38.6118 9.98713 39.235 9.86018C40.483 9.60593 42.2417 9.35142 44.2757 9.35139C48.3456 9.35134 53.4565 10.3671 57.8308 14.3768L59.1822 12.9025C54.3258 8.45082 48.6675 7.35133 44.2757 7.35139C42.079 7.35142 40.1838 7.6258 38.8357 7.90043C38.1608 8.03792 37.6207 8.17596 37.2456 8.28086C37.0579 8.33333 36.9114 8.37757 36.8098 8.40939C36.7589 8.4253 36.7193 8.43811 36.6913 8.4473C36.6774 8.4519 36.6663 8.45559 36.6582 8.45831C36.6542 8.45967 36.6509 8.46079 36.6483 8.46165C36.647 8.46209 36.646 8.46246 36.6451 8.46277C36.6446 8.46292 36.6441 8.4631 36.6439 8.46318C36.6434 8.46335 36.6429 8.4635 36.968 9.40918ZM57.8308 14.3768C61.8292 18.042 63.6467 22.7119 64.4325 26.7635L66.3959 26.3827C65.5583 22.0642 63.5952 16.9477 59.1822 12.9025L57.8308 14.3768Z" fill="white"/>
<path d="M40.6067 64.2465C41.1431 64.115 41.4713 63.5735 41.3397 63.0371C41.2082 62.5007 40.6667 62.1725 40.1303 62.3041L40.6067 64.2465ZM19.3012 57.1131L18.5615 57.7861L19.3012 57.1131ZM14.0075 34.6184L7.77867 44.3414L19.3134 44.8742L14.0075 34.6184ZM40.3685 63.2753C40.1303 62.3041 40.1307 62.304 40.131 62.3039C40.131 62.3039 40.1313 62.3038 40.1314 62.3038C40.1315 62.3038 40.1315 62.3038 40.1312 62.3038C40.1308 62.304 40.1296 62.3042 40.1276 62.3047C40.1237 62.3056 40.1168 62.3073 40.107 62.3095C40.0873 62.3141 40.0559 62.3212 40.0133 62.3304C39.9282 62.3488 39.7983 62.3755 39.6278 62.4069C39.2867 62.4697 38.7838 62.551 38.1517 62.621C36.8857 62.7613 35.1112 62.8556 33.0855 62.6716C29.0324 62.3033 24.0344 60.8292 20.0408 56.4401L18.5615 57.7861C22.9952 62.659 28.5308 64.266 32.9046 64.6634C35.0923 64.8621 37.0045 64.7604 38.3719 64.6088C39.0565 64.533 39.6069 64.4444 39.99 64.3739C40.1816 64.3386 40.3315 64.3078 40.4356 64.2853C40.4877 64.2741 40.5283 64.2649 40.557 64.2583C40.5713 64.2549 40.5827 64.2523 40.591 64.2503C40.5951 64.2493 40.5985 64.2485 40.6011 64.2479C40.6025 64.2475 40.6036 64.2473 40.6045 64.247C40.605 64.2469 40.6055 64.2468 40.6057 64.2467C40.6062 64.2466 40.6067 64.2465 40.3685 63.2753ZM20.0408 56.4401C16.3905 52.4281 15.0031 47.613 14.5871 43.5069L12.5973 43.7085C13.0407 48.085 14.5327 53.3582 18.5615 57.7861L20.0408 56.4401Z" fill="white"/>
<g clip-path="url(#clip0)">
<path d="M43.1219 42.3419V50.515H54.5643V40.9116L43.1219 42.3419Z" fill="white"/>
<path d="M56.1989 40.7074V50.5151H69.2758V39.0728L56.1989 40.7074Z" fill="white"/>
<path d="M56.1989 52.1494V61.9571L69.2758 63.5917V52.1494H56.1989Z" fill="white"/>
<path d="M43.1219 52.1494V60.3225L54.5643 61.7528V52.1494H43.1219Z" fill="white"/>
</g>
<g clip-path="url(#clip1)">
<path d="M28.3612 2.87061C26.7618 2.98123 24.8924 4.00497 23.8031 5.33809C22.8093 6.54746 21.9918 8.3437 22.3106 10.0893C24.0581 10.1437 25.8637 9.09557 26.9099 7.73995C27.8887 6.47808 28.6293 4.69309 28.3612 2.87061Z" fill="white"/>
<path d="M34.6817 12.9357C33.1461 11.0101 30.988 9.89258 28.9499 9.89258C26.2593 9.89258 25.1211 11.1807 23.2518 11.1807C21.3243 11.1807 19.8599 9.89633 17.5331 9.89633C15.2474 9.89633 12.8137 11.2932 11.2706 13.6819C9.10123 17.0457 9.47247 23.37 12.9881 28.7568C14.2462 30.6843 15.9262 32.8518 18.1237 32.8706C20.0793 32.8893 20.6305 31.6162 23.2799 31.6031C25.9293 31.5881 26.4317 32.8874 28.3836 32.8668C30.583 32.8499 32.3548 30.4481 33.613 28.5206C34.5148 27.1387 34.8504 26.4431 35.5498 24.8831C30.463 22.9463 29.6474 15.7125 34.6817 12.9357Z" fill="white"/>
</g>
</g>
<defs>
<filter id="filter0_d" x="0.357422" y="0.629883" width="78.0253" height="78.9473" filterUnits="userSpaceOnUse" color-interpolation-filters="sRGB">
<feFlood flood-opacity="0" result="BackgroundImageFix"/>
<feColorMatrix in="SourceAlpha" type="matrix" values="0 0 0 0 0 0 0 0 0 0 0 0 0 0 0 0 0 0 127 0"/>
<feOffset dy="4"/>
<feGaussianBlur stdDeviation="2"/>
<feColorMatrix type="matrix" values="0 0 0 0 0 0 0 0 0 0 0 0 0 0 0 0 0 0 0.25 0"/>
<feBlend mode="normal" in2="BackgroundImageFix" result="effect1_dropShadow"/>
<feBlend mode="normal" in="SourceGraphic" in2="effect1_dropShadow" result="shape"/>
</filter>
<clipPath id="clip0">
<rect width="26.1538" height="26.1538" fill="white" transform="translate(43.1219 38.2554)"/>
</clipPath>
<clipPath id="clip1">
<rect width="30" height="30" fill="white" transform="translate(7.73743 2.87061)"/>
</clipPath>
</defs>
</svg>
